<mxfile host="Electron" modified="2023-12-30T13:53:26.422Z" agent="Mozilla/5.0 (Windows NT 10.0; Win64; x64) AppleWebKit/537.36 (KHTML, like Gecko) draw.io/22.1.16 Chrome/120.0.6099.109 Electron/28.1.0 Safari/537.36" etag="ni0kqDBElpCzbCTXUt2r" version="22.1.16" type="device">
  <diagram name="Page-1" id="xCV3qbr-aHJIMHQM99jd">
    <mxGraphModel dx="489" dy="336" grid="1" gridSize="10" guides="1" tooltips="1" connect="1" arrows="1" fold="1" page="1" pageScale="1" pageWidth="850" pageHeight="1100" math="0" shadow="0">
      <root>
        <mxCell id="0" />
        <mxCell id="1" parent="0" />
        <mxCell id="pfWEPuTHE0WtEu-Z-9tJ-4" style="edgeStyle=orthogonalEdgeStyle;rounded=0;orthogonalLoop=1;jettySize=auto;html=1;curved=1;" edge="1" parent="1" source="XeMqBI3337VZsXZ9aHH5-29" target="pfWEPuTHE0WtEu-Z-9tJ-1">
          <mxGeometry relative="1" as="geometry" />
        </mxCell>
        <mxCell id="pfWEPuTHE0WtEu-Z-9tJ-5" style="edgeStyle=orthogonalEdgeStyle;rounded=0;orthogonalLoop=1;jettySize=auto;html=1;curved=1;" edge="1" parent="1" source="XeMqBI3337VZsXZ9aHH5-29" target="pfWEPuTHE0WtEu-Z-9tJ-2">
          <mxGeometry relative="1" as="geometry" />
        </mxCell>
        <mxCell id="XeMqBI3337VZsXZ9aHH5-29" value="&lt;p style=&quot;line-height: 100%;&quot;&gt;&lt;font face=&quot;Consolas&quot;&gt;double *pd {&amp;amp;d1};&lt;/font&gt;&lt;/p&gt;" style="rounded=0;whiteSpace=wrap;html=1;strokeColor=none;fillColor=#FAD9D5;align=center;" parent="1" vertex="1">
          <mxGeometry x="280" y="180" width="120" height="20" as="geometry" />
        </mxCell>
        <mxCell id="pfWEPuTHE0WtEu-Z-9tJ-1" value="&lt;p style=&quot;line-height: 100%;&quot;&gt;&lt;font face=&quot;Consolas&quot;&gt;pd = &amp;amp;d2;&lt;/font&gt;&lt;/p&gt;" style="rounded=0;whiteSpace=wrap;html=1;strokeColor=none;fillColor=#fad7ac;align=center;" vertex="1" parent="1">
          <mxGeometry x="200" y="260" width="120" height="20" as="geometry" />
        </mxCell>
        <mxCell id="pfWEPuTHE0WtEu-Z-9tJ-2" value="&lt;p style=&quot;line-height: 100%;&quot;&gt;&lt;font face=&quot;Consolas&quot;&gt;*pd = 1e10;&lt;/font&gt;&lt;/p&gt;" style="rounded=0;whiteSpace=wrap;html=1;strokeColor=none;fillColor=#dae8fc;align=center;" vertex="1" parent="1">
          <mxGeometry x="360" y="260" width="120" height="20" as="geometry" />
        </mxCell>
        <mxCell id="pfWEPuTHE0WtEu-Z-9tJ-6" value="&lt;font face=&quot;consolas&quot;&gt;改变指针的指向&lt;br&gt;d1和d2的值都不变&lt;br&gt;&lt;/font&gt;" style="text;html=1;strokeColor=none;fillColor=none;align=center;verticalAlign=middle;whiteSpace=wrap;rounded=0;" vertex="1" parent="1">
          <mxGeometry x="200" y="280" width="120" height="40" as="geometry" />
        </mxCell>
        <mxCell id="pfWEPuTHE0WtEu-Z-9tJ-8" value="&lt;font face=&quot;consolas&quot;&gt;改变指针的内容&lt;br&gt;pd的指向不变&lt;/font&gt;" style="text;html=1;strokeColor=none;fillColor=none;align=center;verticalAlign=middle;whiteSpace=wrap;rounded=0;" vertex="1" parent="1">
          <mxGeometry x="360" y="280" width="120" height="40" as="geometry" />
        </mxCell>
      </root>
    </mxGraphModel>
  </diagram>
</mxfile>
